<svg width="25" height="25" viewBox="0 0 25 25" fill="none" xmlns="http://www.w3.org/2000/svg">
<path fill-rule="evenodd" clip-rule="evenodd" d="M6.2513 10.416C5.10547 10.416 4.16797 11.3535 4.16797 12.4993C4.16797 13.6452 5.10547 14.5827 6.2513 14.5827C7.39714 14.5827 8.33464 13.6452 8.33464 12.4993C8.33464 11.3535 7.39714 10.416 6.2513 10.416ZM18.7513 10.416C17.6055 10.416 16.668 11.3535 16.668 12.4993C16.668 13.6452 17.6055 14.5827 18.7513 14.5827C19.8971 14.5827 20.8346 13.6452 20.8346 12.4993C20.8346 11.3535 19.8971 10.416 18.7513 10.416ZM10.418 12.4993C10.418 11.3535 11.3555 10.416 12.5013 10.416C13.6471 10.416 14.5846 11.3535 14.5846 12.4993C14.5846 13.6452 13.6471 14.5827 12.5013 14.5827C11.3555 14.5827 10.418 13.6452 10.418 12.4993Z" fill="white"/>
</svg>
