<svg width="46" height="46" viewBox="0 0 46 46" fill="none" xmlns="http://www.w3.org/2000/svg">
    <defs>
        <linearGradient id="paint0_linear_2601_712" x1="8.5651" y1="-1.50468e-06" x2="58.4269"
            y2="22.6081" gradientUnits="userSpaceOnUse">
            <stop stop-color="#9E45ED" />
            <stop offset="0.34375" stop-color="#ED44D6" />
            <stop offset="0.692708" stop-color="#F74387" />
            <stop offset="1" stop-color="#FFA373" />
        </linearGradient>
        <linearGradient id="paint1_linear_2601_712" x1="14.1042" y1="10.3965" x2="43.0851"
            y2="25.6691" gradientUnits="userSpaceOnUse">
            <stop stop-color="#9E45ED" />
            <stop offset="0.34375" stop-color="#ED44D6" />
            <stop offset="0.692708" stop-color="#F74387" />
            <stop offset="1" stop-color="#FFA373" />
        </linearGradient>
    </defs>
    <rect width="46" height="46" rx="23" fill="url(#paint0_linear_2601_712)" />
    <circle cx="22.9948" cy="23.0007" r="19.1667" fill="white" />
    <mask id="mask0_2601_712" style="mask-type:alpha" maskUnits="userSpaceOnUse" x="8" y="12"
        width="30" height="22">
        <rect x="18.6406" y="12.1113" width="2.17803" height="21.7803" rx="1.08902"
            fill="#5B6CD4" />
        <rect x="15.375" y="15.3789" width="2.17803" height="15.2462" rx="1.08902" fill="#5B6CD4" />
        <rect x="12.1055" y="18.6465" width="2.17803" height="8.71212" rx="1.08902"
            fill="#5B6CD4" />
        <rect x="8.83984" y="21.3457" width="2.17803" height="3.26705" rx="1.08902"
            fill="#5B6CD4" />
        <rect x="34.9766" y="21.3457" width="2.17803" height="3.26705" rx="1.08902"
            fill="#5B6CD4" />
        <rect width="2.17803" height="15.2462" rx="1.08902"
            transform="matrix(-1 0 0 1 24.0859 15.3789)" fill="#5B6CD4" />
        <rect width="2.17803" height="15.2462" rx="1.08902"
            transform="matrix(-1 0 0 1 30.6211 15.3789)" fill="#5B6CD4" />
        <rect width="2.17803" height="8.71212" rx="1.08902"
            transform="matrix(-1 0 0 1 27.3516 18.6465)" fill="#5B6CD4" />
        <rect width="2.17803" height="8.71212" rx="1.08902"
            transform="matrix(-1 0 0 1 33.8867 18.6465)" fill="#5B6CD4" />
    </mask>
    <g mask="url(#mask0_2601_712)">
        <rect x="8.82812" y="10.3965" width="28.336" height="24.38"
            fill="url(#paint1_linear_2601_712)" />
    </g>
</svg>
